<?xml version="1.0" standalone="no"?>
<!DOCTYPE svg PUBLIC "-//W3C//DTD SVG 20010904//EN"
 "http://www.w3.org/TR/2001/REC-SVG-20010904/DTD/svg10.dtd">
<svg version="1.0" xmlns="http://www.w3.org/2000/svg"
 width="1563.000000pt" height="3383.000000pt" viewBox="0 0 1563.000000 3383.000000"
 preserveAspectRatio="xMidYMid meet">

<g transform="translate(0.000000,3383.000000) scale(0.100000,-0.100000)"
fill="#000000" stroke="none">
<path d="M830 33814 c-205 -44 -365 -129 -517 -277 -137 -133 -219 -269 -280
-463 l-28 -89 -3 -13774 -2 -13774 25 -43 c32 -55 32 -71 0 -19 l-25 40 2
-2285 3 -2285 28 -89 c59 -187 130 -309 260 -443 133 -137 269 -219 463 -280
l89 -28 2550 -2 2550 -3 -40 23 c-23 13 -105 57 -183 98 -78 41 -142 77 -142
82 0 4 37 -13 83 -38 45 -25 135 -73 200 -106 l117 -59 4403 2 4402 3 89 28
c194 61 330 143 463 280 130 134 201 256 260 443 l28 89 0 16070 0 16070 -28
89 c-61 194 -143 330 -280 463 -134 130 -256 201 -443 260 l-89 28 -6945 2
c-5912 1 -6955 -1 -7010 -13z m14785 -24711 c5 -14 4 -15 -6 -6 -10 10 -26 -6
-76 -70 -35 -45 -69 -84 -75 -86 -6 -2 22 38 62 88 39 50 75 91 80 91 4 0 11
-8 15 -17z m-171 -185 c-20 -34 -413 -508 -420 -508 -10 0 10 26 111 145 55
66 147 177 204 248 92 113 127 151 105 115z m-505 -610 c-41 -46 -90 -101
-109 -122 -82 -93 -294 -317 -366 -386 l-78 -75 79 85 c44 47 114 121 156 165
88 92 262 284 333 368 27 32 51 55 54 53 2 -3 -29 -43 -69 -88z m-634 -669
c-44 -44 -89 -85 -100 -90 -11 -6 22 31 74 81 51 49 96 90 99 90 4 0 -29 -36
-73 -81z m-165 -150 c-107 -96 -151 -132 -155 -127 -3 2 23 27 58 55 34 28 75
65 91 82 17 17 35 31 40 31 6 -1 -9 -19 -34 -41z m-170 -143 c0 -2 -55 -48
-122 -102 -146 -117 -508 -476 -594 -589 -126 -166 -151 -202 -196 -275 -25
-41 -64 -110 -88 -152 -23 -43 -44 -78 -47 -78 -10 0 101 199 165 295 167 251
425 530 717 777 135 114 165 137 165 124z m-1064 -1250 c-8 -20 -18 -36 -21
-36 -3 0 2 16 10 36 8 20 15 39 15 42 0 3 3 3 6 0 3 -3 -2 -22 -10 -42z m-46
-111 c-10 -27 -19 -45 -20 -40 0 15 34 108 37 98 2 -4 -6 -30 -17 -58z m-56
-174 c-4 -17 -9 -30 -11 -27 -3 2 -2 19 2 36 9 41 17 33 9 -9z m-17 -63 c-3
-8 -6 -5 -6 6 -1 11 2 17 5 13 3 -3 4 -12 1 -19z m-10 -40 c-3 -8 -6 -5 -6 6
-1 11 2 17 5 13 3 -3 4 -12 1 -19z m-10 -50 c-3 -8 -6 -5 -6 6 -1 11 2 17 5
13 3 -3 4 -12 1 -19z m-10 -60 c-3 -7 -5 -2 -5 12 0 14 2 19 5 13 2 -7 2 -19
0 -25z m-10 -75 c-3 -10 -5 -4 -5 12 0 17 2 24 5 18 2 -7 2 -21 0 -30z m-10
-125 c-2 -18 -4 -6 -4 27 0 33 2 48 4 33 2 -15 2 -42 0 -60z m-12663 -84 c9
-24 2 -26 -12 -4 -7 11 -8 20 -3 20 5 0 12 -7 15 -16z m76 -129 c24 -38 50
-81 59 -95 9 -13 11 -21 4 -17 -7 4 -40 54 -73 110 -34 56 -55 95 -47 87 7 -8
33 -46 57 -85z m12587 -17 c-2 -18 -4 -6 -4 27 0 33 2 48 4 33 2 -15 2 -42 0
-60z m10 -105 c-3 -10 -5 -2 -5 17 0 19 2 27 5 18 2 -10 2 -26 0 -35z m-12434
-135 c42 -65 73 -118 69 -118 -8 0 -162 235 -162 247 0 12 13 -6 93 -129z
m12444 65 c-3 -10 -5 -4 -5 12 0 17 2 24 5 18 2 -7 2 -21 0 -30z m10 -65 c-3
-7 -5 -2 -5 12 0 14 2 19 5 13 2 -7 2 -19 0 -25z m10 -60 c-3 -7 -5 -2 -5 12
0 14 2 19 5 13 2 -7 2 -19 0 -25z m10 -40 c-3 -8 -6 -5 -6 6 -1 11 2 17 5 13
3 -3 4 -12 1 -19z m10 -50 c-3 -7 -5 -2 -5 12 0 14 2 19 5 13 2 -7 2 -19 0
-25z m-12326 -88 c34 -52 102 -149 149 -215 96 -134 103 -145 96 -145 -11 0
-326 451 -326 467 0 12 14 -7 81 -107z m12336 48 c-3 -8 -6 -5 -6 6 -1 11 2
17 5 13 3 -3 4 -12 1 -19z m27 -88 c4 -24 3 -29 -3 -15 -4 11 -11 36 -15 55
-4 24 -3 29 3 15 4 -11 11 -36 15 -55z m44 -150 c0 -8 -6 1 -13 20 -7 19 -13
42 -13 50 0 8 6 -1 13 -20 7 -19 13 -42 13 -50z m41 -109 c17 -47 29 -86 27
-88 -4 -4 -66 161 -66 174 0 15 11 -8 39 -86z m-12088 -203 c138 -180 243
-310 308 -385 29 -35 49 -63 43 -63 -5 0 -22 17 -38 38 -16 20 -55 68 -86 106
-52 62 -238 300 -312 399 -16 20 -26 37 -23 37 4 0 52 -60 108 -132z m12193
-61 c30 -70 51 -125 46 -122 -9 6 -103 226 -114 265 -5 21 -5 22 4 5 5 -11 34
-77 64 -148z m119 -265 c32 -70 53 -122 48 -117 -15 15 -121 245 -113 245 4 0
33 -58 65 -128z m-11832 -264 c412 -480 949 -1015 1451 -1447 87 -74 156 -137
153 -139 -7 -7 -367 306 -550 478 -429 405 -766 753 -1083 1123 -85 99 -98
117 -88 117 2 0 54 -60 117 -132z m11933 55 c20 -40 34 -73 31 -73 -5 0 -75
136 -75 146 0 12 6 1 44 -73z m118 -233 c42 -80 140 -269 219 -420 147 -284
289 -572 289 -587 -1 -4 -54 98 -118 227 -65 129 -198 388 -295 576 -97 187
-177 344 -177 349 0 13 2 10 82 -145z m558 -1106 c22 -48 40 -92 39 -98 0 -10
-25 41 -70 142 -34 79 -9 43 31 -44z m79 -177 c30 -67 47 -116 38 -107 -9 9
-77 170 -71 170 3 0 18 -28 33 -63z m80 -197 c0 -8 -9 3 -19 25 -24 53 -24 70
0 25 11 -19 19 -42 19 -50z m-10675 -313 c279 -214 615 -457 879 -632 97 -65
175 -120 173 -123 -5 -5 -366 238 -579 390 -347 248 -927 700 -927 723 0 3 75
-56 168 -131 92 -75 221 -177 286 -227z m10729 181 c21 -54 37 -103 37 -110
-1 -11 -28 56 -76 187 -8 22 -11 35 -6 30 5 -6 25 -54 45 -107z m83 -230 c36
-108 28 -106 -11 2 -19 52 -35 97 -35 100 1 13 24 -38 46 -102z m31 -120 c-3
-8 -6 -5 -6 6 -1 11 2 17 5 13 3 -3 4 -12 1 -19z m22 -58 c0 -10 -3 -8 -9 5
-12 27 -12 43 0 25 5 -8 9 -22 9 -30z m20 -70 c0 -9 -4 -8 -9 5 -5 11 -9 27
-9 35 0 9 4 8 9 -5 5 -11 9 -27 9 -35z m20 -70 c0 -9 -4 -8 -9 5 -5 11 -9 27
-9 35 0 9 4 8 9 -5 5 -11 9 -27 9 -35z m18 -82 c-3 -8 -6 -5 -6 6 -1 11 2 17
5 13 3 -3 4 -12 1 -19z m10 -40 c-3 -8 -6 -5 -6 6 -1 11 2 17 5 13 3 -3 4 -12
1 -19z m10 -50 c-3 -7 -5 -2 -5 12 0 14 2 19 5 13 2 -7 2 -19 0 -25z m10 -40
c-3 -8 -6 -5 -6 6 -1 11 2 17 5 13 3 -3 4 -12 1 -19z m10 -50 c-3 -7 -5 -2 -5
12 0 14 2 19 5 13 2 -7 2 -19 0 -25z m10 -50 c-3 -8 -6 -5 -6 6 -1 11 2 17 5
13 3 -3 4 -12 1 -19z m10 -50 c-3 -7 -5 -2 -5 12 0 14 2 19 5 13 2 -7 2 -19 0
-25z m-9851 -75 c-5 -5 -66 35 -66 42 0 3 16 -5 35 -17 20 -11 34 -23 31 -25z
m9861 15 c-3 -7 -5 -2 -5 12 0 14 2 19 5 13 2 -7 2 -19 0 -25z m-9417 -284
c113 -67 214 -130 225 -139 32 -26 -65 30 -305 175 -301 183 -350 214 -350
222 0 4 51 -25 113 -64 61 -39 204 -127 317 -194z m9427 224 c-3 -7 -5 -2 -5
12 0 14 2 19 5 13 2 -7 2 -19 0 -25z m10 -65 c-3 -10 -5 -4 -5 12 0 17 2 24 5
18 2 -7 2 -21 0 -30z m10 -80 c-3 -10 -5 -2 -5 17 0 19 2 27 5 18 2 -10 2 -26
0 -35z m10 -90 c-3 -10 -5 -2 -5 17 0 19 2 27 5 18 2 -10 2 -26 0 -35z m10
-130 c-2 -16 -4 -3 -4 27 0 30 2 43 4 28 2 -16 2 -40 0 -55z m-9148 -47 c31
-18 80 -46 109 -61 28 -16 50 -30 48 -32 -2 -2 -26 8 -52 23 -146 80 -174 96
-174 100 0 9 15 3 69 -30z m266 -154 c-5 -5 -95 42 -95 50 0 4 22 -4 49 -19
27 -16 48 -29 46 -31z m8882 -69 c-2 -16 -4 -5 -4 22 0 28 2 40 4 28 2 -13 2
-35 0 -50z m-10 -100 c-3 -10 -5 -2 -5 17 0 19 2 27 5 18 2 -10 2 -26 0 -35z"/>
</g>
</svg>
